<svg xmlns="http://www.w3.org/2000/svg" width="830" height="851" viewBox="0 0 830 851">
  <style>
    .op-title { font-family: sans-serif; font-size: 16px; font-weight: bold; fill: #E65100; }
    .better-label { font-family: sans-serif; font-size: 11px; font-style: italic; fill: #888; }
    .axis-label { font-family: monospace; font-size: 11px; fill: #3E2723; }
    .lib-label { font-family: sans-serif; font-size: 13px; fill: #3E2723; }
    .zc-label { font-family: sans-serif; font-size: 13px; font-weight: bold; fill: #E65100; }
    .footer { font-family: sans-serif; font-size: 12px; fill: #888; }
  </style>
  <rect width="830" height="851" fill="#FFFFFF" rx="15"/>
  <text x="790" y="40" class="better-label" text-anchor="end">Lower values denote lower latency (better)</text>
  <text x="40" y="40" class="op-title">Write Latency (Redis)</text>
  <line x1="180.0" y1="55" x2="180.0" y2="99" stroke="#E0E0E0" stroke-dasharray="2"/>
  <text x="180.0" y="111" class="axis-label" text-anchor="middle">0.0ms</text>
  <line x1="320.0" y1="55" x2="320.0" y2="99" stroke="#E0E0E0" stroke-dasharray="2"/>
  <text x="320.0" y="111" class="axis-label" text-anchor="middle">676.6ms</text>
  <line x1="460.0" y1="55" x2="460.0" y2="99" stroke="#E0E0E0" stroke-dasharray="2"/>
  <text x="460.0" y="111" class="axis-label" text-anchor="middle">1353.3ms</text>
  <line x1="600.0" y1="55" x2="600.0" y2="99" stroke="#E0E0E0" stroke-dasharray="2"/>
  <text x="600.0" y="111" class="axis-label" text-anchor="middle">2029.9ms</text>
  <line x1="740.0" y1="55" x2="740.0" y2="99" stroke="#E0E0E0" stroke-dasharray="2"/>
  <text x="740.0" y="111" class="axis-label" text-anchor="middle">2706.5ms</text>
  <text x="40" y="70" class="zc-label" text-anchor="start">ZooCache (Redis)</text>
  <rect x="180" y="57" width="239.7847400842007" height="18" fill="#E65100" rx="3">
    <animate attributeName="opacity" values="1;0.8;1" dur="2s" repeatCount="indefinite" />
  </rect>
  <text x="424.78474008420073" y="70" class="axis-label" style="fill: #E65100; font-weight: bold;">1158ms</text>
  <text x="40" y="92" class="lib-label" text-anchor="start">Cashews (Redis)</text>
  <rect x="180" y="79" width="560.0" height="18" fill="#BDBDBD" rx="3">
  </rect>
  <text x="745.0" y="92" class="axis-label" style="fill: #BDBDBD; font-weight: bold;">2706ms</text>
  <text x="40" y="144" class="op-title">Read Latency (Redis)</text>
  <line x1="180.0" y1="159" x2="180.0" y2="203" stroke="#E0E0E0" stroke-dasharray="2"/>
  <text x="180.0" y="215" class="axis-label" text-anchor="middle">0.0ms</text>
  <line x1="320.0" y1="159" x2="320.0" y2="203" stroke="#E0E0E0" stroke-dasharray="2"/>
  <text x="320.0" y="215" class="axis-label" text-anchor="middle">328.6ms</text>
  <line x1="460.0" y1="159" x2="460.0" y2="203" stroke="#E0E0E0" stroke-dasharray="2"/>
  <text x="460.0" y="215" class="axis-label" text-anchor="middle">657.2ms</text>
  <line x1="600.0" y1="159" x2="600.0" y2="203" stroke="#E0E0E0" stroke-dasharray="2"/>
  <text x="600.0" y="215" class="axis-label" text-anchor="middle">985.8ms</text>
  <line x1="740.0" y1="159" x2="740.0" y2="203" stroke="#E0E0E0" stroke-dasharray="2"/>
  <text x="740.0" y="215" class="axis-label" text-anchor="middle">1314.4ms</text>
  <text x="40" y="174" class="zc-label" text-anchor="start">ZooCache (Redis)</text>
  <rect x="180" y="161" width="386.0825434340018" height="18" fill="#E65100" rx="3">
    <animate attributeName="opacity" values="1;0.8;1" dur="2s" repeatCount="indefinite" />
  </rect>
  <text x="571.0825434340018" y="174" class="axis-label" style="fill: #E65100; font-weight: bold;">906ms</text>
  <text x="40" y="196" class="lib-label" text-anchor="start">Cashews (Redis)</text>
  <rect x="180" y="183" width="560.0" height="18" fill="#BDBDBD" rx="3">
  </rect>
  <text x="745.0" y="196" class="axis-label" style="fill: #BDBDBD; font-weight: bold;">1314ms</text>
  <text x="40" y="248" class="op-title">Semantic Invalidation Latency (Redis)</text>
  <line x1="180.0" y1="263" x2="180.0" y2="307" stroke="#E0E0E0" stroke-dasharray="2"/>
  <text x="180.0" y="319" class="axis-label" text-anchor="middle">0.0ms</text>
  <line x1="320.0" y1="263" x2="320.0" y2="307" stroke="#E0E0E0" stroke-dasharray="2"/>
  <text x="320.0" y="319" class="axis-label" text-anchor="middle">13.2ms</text>
  <line x1="460.0" y1="263" x2="460.0" y2="307" stroke="#E0E0E0" stroke-dasharray="2"/>
  <text x="460.0" y="319" class="axis-label" text-anchor="middle">26.4ms</text>
  <line x1="600.0" y1="263" x2="600.0" y2="307" stroke="#E0E0E0" stroke-dasharray="2"/>
  <text x="600.0" y="319" class="axis-label" text-anchor="middle">39.6ms</text>
  <line x1="740.0" y1="263" x2="740.0" y2="307" stroke="#E0E0E0" stroke-dasharray="2"/>
  <text x="740.0" y="319" class="axis-label" text-anchor="middle">52.8ms</text>
  <text x="40" y="278" class="zc-label" text-anchor="start">ZooCache (Redis)</text>
  <rect x="180" y="265" width="4.670147531720197" height="18" fill="#E65100" rx="3">
    <animate attributeName="opacity" values="1;0.8;1" dur="2s" repeatCount="indefinite" />
  </rect>
  <text x="189.6701475317202" y="278" class="axis-label" style="fill: #E65100; font-weight: bold;">0.44ms</text>
  <text x="40" y="300" class="lib-label" text-anchor="start">Cashews (Redis)</text>
  <rect x="180" y="287" width="560.0" height="18" fill="#BDBDBD" rx="3">
  </rect>
  <text x="745.0" y="300" class="axis-label" style="fill: #BDBDBD; font-weight: bold;">52ms</text>
  <text x="40" y="352" class="op-title">Write Latency (Local)</text>
  <line x1="180.0" y1="367" x2="180.0" y2="455" stroke="#E0E0E0" stroke-dasharray="2"/>
  <text x="180.0" y="467" class="axis-label" text-anchor="middle">0.0ms</text>
  <line x1="320.0" y1="367" x2="320.0" y2="455" stroke="#E0E0E0" stroke-dasharray="2"/>
  <text x="320.0" y="467" class="axis-label" text-anchor="middle">74.4ms</text>
  <line x1="460.0" y1="367" x2="460.0" y2="455" stroke="#E0E0E0" stroke-dasharray="2"/>
  <text x="460.0" y="467" class="axis-label" text-anchor="middle">148.9ms</text>
  <line x1="600.0" y1="367" x2="600.0" y2="455" stroke="#E0E0E0" stroke-dasharray="2"/>
  <text x="600.0" y="467" class="axis-label" text-anchor="middle">223.3ms</text>
  <line x1="740.0" y1="367" x2="740.0" y2="455" stroke="#E0E0E0" stroke-dasharray="2"/>
  <text x="740.0" y="467" class="axis-label" text-anchor="middle">297.8ms</text>
  <text x="40" y="382" class="zc-label" text-anchor="start">ZooCache (Mem)</text>
  <rect x="180" y="369" width="9.511450091277855" height="18" fill="#E65100" rx="3">
    <animate attributeName="opacity" values="1;0.8;1" dur="2s" repeatCount="indefinite" />
  </rect>
  <text x="194.51145009127785" y="382" class="axis-label" style="fill: #E65100; font-weight: bold;">5.06ms</text>
  <text x="40" y="404" class="zc-label" text-anchor="start">ZooCache (LMDB)</text>
  <rect x="180" y="391" width="57.77677572889716" height="18" fill="#E65100" rx="3">
    <animate attributeName="opacity" values="1;0.8;1" dur="2s" repeatCount="indefinite" />
  </rect>
  <text x="242.77677572889715" y="404" class="axis-label" style="fill: #E65100; font-weight: bold;">30ms</text>
  <text x="40" y="426" class="lib-label" text-anchor="start">Cashews (Mem)</text>
  <rect x="180" y="413" width="322.54174387007436" height="18" fill="#BDBDBD" rx="3">
  </rect>
  <text x="507.54174387007436" y="426" class="axis-label" style="fill: #BDBDBD; font-weight: bold;">171ms</text>
  <text x="40" y="448" class="lib-label" text-anchor="start">DiskCache (File)</text>
  <rect x="180" y="435" width="560.0" height="18" fill="#BDBDBD" rx="3">
  </rect>
  <text x="745.0" y="448" class="axis-label" style="fill: #BDBDBD; font-weight: bold;">297ms</text>
  <text x="40" y="500" class="op-title">Read Latency (Local)</text>
  <line x1="180.0" y1="515" x2="180.0" y2="603" stroke="#E0E0E0" stroke-dasharray="2"/>
  <text x="180.0" y="615" class="axis-label" text-anchor="middle">0.0ms</text>
  <line x1="320.0" y1="515" x2="320.0" y2="603" stroke="#E0E0E0" stroke-dasharray="2"/>
  <text x="320.0" y="615" class="axis-label" text-anchor="middle">5.7ms</text>
  <line x1="460.0" y1="515" x2="460.0" y2="603" stroke="#E0E0E0" stroke-dasharray="2"/>
  <text x="460.0" y="615" class="axis-label" text-anchor="middle">11.4ms</text>
  <line x1="600.0" y1="515" x2="600.0" y2="603" stroke="#E0E0E0" stroke-dasharray="2"/>
  <text x="600.0" y="615" class="axis-label" text-anchor="middle">17.0ms</text>
  <line x1="740.0" y1="515" x2="740.0" y2="603" stroke="#E0E0E0" stroke-dasharray="2"/>
  <text x="740.0" y="615" class="axis-label" text-anchor="middle">22.7ms</text>
  <text x="40" y="530" class="zc-label" text-anchor="start">ZooCache (Mem)</text>
  <rect x="180" y="517" width="53.10614026517051" height="18" fill="#E65100" rx="3">
    <animate attributeName="opacity" values="1;0.8;1" dur="2s" repeatCount="indefinite" />
  </rect>
  <text x="238.1061402651705" y="530" class="axis-label" style="fill: #E65100; font-weight: bold;">2.16ms</text>
  <text x="40" y="552" class="zc-label" text-anchor="start">ZooCache (LMDB)</text>
  <rect x="180" y="539" width="157.2346813298521" height="18" fill="#E65100" rx="3">
    <animate attributeName="opacity" values="1;0.8;1" dur="2s" repeatCount="indefinite" />
  </rect>
  <text x="342.2346813298521" y="552" class="axis-label" style="fill: #E65100; font-weight: bold;">6.38ms</text>
  <text x="40" y="574" class="lib-label" text-anchor="start">Cashews (Mem)</text>
  <rect x="180" y="561" width="336.94943960951673" height="18" fill="#BDBDBD" rx="3">
  </rect>
  <text x="521.9494396095167" y="574" class="axis-label" style="fill: #BDBDBD; font-weight: bold;">13ms</text>
  <text x="40" y="596" class="lib-label" text-anchor="start">DiskCache (File)</text>
  <rect x="180" y="583" width="560.0" height="18" fill="#BDBDBD" rx="3">
  </rect>
  <text x="745.0" y="596" class="axis-label" style="fill: #BDBDBD; font-weight: bold;">22ms</text>
  <text x="40" y="648" class="op-title">Semantic Invalidation Latency (Local)</text>
  <line x1="180.0" y1="663" x2="180.0" y2="751" stroke="#E0E0E0" stroke-dasharray="2"/>
  <text x="180.0" y="763" class="axis-label" text-anchor="middle">0.0ms</text>
  <line x1="320.0" y1="663" x2="320.0" y2="751" stroke="#E0E0E0" stroke-dasharray="2"/>
  <text x="320.0" y="763" class="axis-label" text-anchor="middle">4.3ms</text>
  <line x1="460.0" y1="663" x2="460.0" y2="751" stroke="#E0E0E0" stroke-dasharray="2"/>
  <text x="460.0" y="763" class="axis-label" text-anchor="middle">8.5ms</text>
  <line x1="600.0" y1="663" x2="600.0" y2="751" stroke="#E0E0E0" stroke-dasharray="2"/>
  <text x="600.0" y="763" class="axis-label" text-anchor="middle">12.8ms</text>
  <line x1="740.0" y1="663" x2="740.0" y2="751" stroke="#E0E0E0" stroke-dasharray="2"/>
  <text x="740.0" y="763" class="axis-label" text-anchor="middle">17.0ms</text>
  <text x="40" y="678" class="zc-label" text-anchor="start">ZooCache (LMDB)</text>
  <rect x="180" y="665" width="3" height="18" fill="#E65100" rx="3">
    <animate attributeName="opacity" values="1;0.8;1" dur="2s" repeatCount="indefinite" />
  </rect>
  <text x="188" y="678" class="axis-label" style="fill: #E65100; font-weight: bold;">0.0055ms</text>
  <text x="40" y="700" class="zc-label" text-anchor="start">ZooCache (Mem)</text>
  <rect x="180" y="687" width="3" height="18" fill="#E65100" rx="3">
    <animate attributeName="opacity" values="1;0.8;1" dur="2s" repeatCount="indefinite" />
  </rect>
  <text x="188" y="700" class="axis-label" style="fill: #E65100; font-weight: bold;">0.0082ms</text>
  <text x="40" y="722" class="lib-label" text-anchor="start">Cashews (Mem)</text>
  <rect x="180" y="709" width="178.549224344438" height="18" fill="#BDBDBD" rx="3">
  </rect>
  <text x="363.549224344438" y="722" class="axis-label" style="fill: #BDBDBD; font-weight: bold;">5.43ms</text>
  <text x="40" y="744" class="lib-label" text-anchor="start">DiskCache (File)</text>
  <rect x="180" y="731" width="560.0" height="18" fill="#BDBDBD" rx="3">
  </rect>
  <text x="745.0" y="744" class="axis-label" style="fill: #BDBDBD; font-weight: bold;">17ms</text>
  <text x="40" y="831" class="footer">Hardware: Apple M1 | 8 GB RAM | Darwin</text>
</svg>